# xmcd
#
# Track frame offsets: 
#        180
#        3950
#        20593
#        35911
#        53147
#        65515
#        82727
#        98798
#        117088
#        132310
#        156709
#        176427
#        192184
#        212560
#
# Disc length: 2855 seconds
#
# Revision: 3
# Processed by: cddbd v1.5.2PL0 Copyright (c) Steve Scherf et al.
# Submitted via: ExactAudioCopy v0.95a4
#
DISCID=b90b250e
DTITLE=Hank H‰berle Jr. - I ben a bogglharter F‰n vom VfB
DYEAR=1997
DGENRE=Country
TTITLE0=F‰ngespr‰ch 1
TTITLE1=I ben a bogglharter Fan vom VfB
TTITLE2=Uff mein VfB laﬂ' I nix komma
TTITLE3=Laﬂ' mir mein VfB ond laﬂ' mir mei Ruah
TTITLE4=Uff'm Wasa grasat koine Hasa
TTITLE5=Rot wia Bluat, weiﬂ wie Schnee
TTITLE6=Oiner goht no nei
TTITLE7=Go, go,go, VfB
TTITLE8=VfB Samba
TTITLE9=Endlich wieder deitscher Moischter (Hymne)
TTITLE10=I f¸hl me wia em Paradies
TTITLE11=Rotweiﬂ zuckt a Blitz vom Hemmel ra
TTITLE12=I ben emmer so traurig (wenn d'r VfB verliert)
TTITLE13=F‰ngespr‰ch 2
EXTD=Year: 1997
EXTT0=
EXTT1=
EXTT2=
EXTT3=
EXTT4=
EXTT5=
EXTT6=
EXTT7=
EXTT8=
EXTT9=
EXTT10=
EXTT11=
EXTT12=
EXTT13=
PLAYORDER=
